# xmcd CD database file
#
# Track frame offsets:
#	150
#	17150
#	38537
#	57520
#	74020
#	95000
#	114095
#	138242
#	157855
#	179912
#	204165
#	224045
#	239912
#
# Disc length: 3367 seconds
#
# Revision: 7
# Processed by: cddbd v1.5.1PL2 Copyright (c) Steve Scherf et al.
# Submitted via: jetAudio 5
#
DISCID=c20d250d
DTITLE=Keith Urban - Be Here
DYEAR=2004
DGENRE=Country
TTITLE0=Days Go By
TTITLE1=Better Life
TTITLE2=Making Memories of Us
TTITLE3=God's Been Good to Me
TTITLE4=The Hard Way
TTITLE5=You're My Better Half
TTITLE6=I Could Fly
TTITLE7=Tonight I Wanna Cry
TTITLE8=She's Gotta Be
TTITLE9=Nobody Drinks Alone
TTITLE10=Country Comfort
TTITLE11=Live to Love Another Day
TTITLE12=These Are the Days
EXTD=YEAR: 2004 ID3G: 2
EXTT0=
EXTT1=
EXTT2=
EXTT3=
EXTT4=
EXTT5=
EXTT6=
EXTT7=
EXTT8=
EXTT9=
EXTT10=
EXTT11=
EXTT12=
PLAYORDER=
